# Blender v2.81 (sub 16) OBJ File: 'untitled.blend'
# www.blender.org
mtllib Wall.mtl
o Plane
v -5.000000 0.000000 2.500000
v 5.000000 0.000000 2.500000
v -5.000000 0.000000 -2.500000
v 5.000000 0.000000 -2.500000
vt 0.000250 0.499751
vt 0.249750 0.250250
vt 0.249750 0.499751
vt 0.000250 0.250250
vn 0.0000 1.0000 0.0000
g Plane_Plane_Material.004
usemtl Material.004
s off
f 2/1/1 3/2/1 1/3/1
f 2/1/1 4/4/1 3/2/1
o Plane.001
v -5.000000 5.000002 -2.500000
v 5.000000 5.000002 -2.500000
v -5.000000 4.999998 2.500000
v 5.000000 4.999998 2.500000
vt 0.250250 0.749751
vt 0.499750 0.500250
vt 0.499751 0.749750
vt 0.250250 0.500250
vn 0.0000 -1.0000 -0.0000
g Plane.001_Plane.001_Material.006
usemtl Material.006
s off
f 6/5/2 7/6/2 5/7/2
f 6/5/2 8/8/2 7/6/2
o Plane.002
v 5.000000 5.000000 2.500000
v 5.000000 0.000000 2.500000
v 5.000000 5.000000 -2.500000
v 5.000000 0.000000 -2.500000
vt 0.750250 0.249751
vt 0.999750 0.000250
vt 0.999750 0.249750
vt 0.750250 0.000250
vn 1.0000 0.0000 0.0000
g Plane.002_Plane.002_Material.001
usemtl Material.001
s off
f 10/9/3 11/10/3 9/11/3
f 10/9/3 12/12/3 11/10/3
o Plane.003
v -5.000000 5.000000 2.500000
v -5.000000 0.000000 2.500000
v -5.000000 5.000000 -2.500000
v -5.000000 0.000000 -2.500000
vt 0.250250 0.249751
vt 0.499750 0.000250
vt 0.499751 0.249750
vt 0.250250 0.000250
vn 1.0000 0.0000 0.0000
g Plane.003_Plane.003_Material.002
usemtl Material.002
s off
f 14/13/4 15/14/4 13/15/4
f 14/13/4 16/16/4 15/14/4
o Plane.004
v -5.000000 0.000000 2.500000
v 5.000000 0.000000 2.500000
v -5.000000 5.000000 2.500000
v 5.000000 5.000000 2.500000
vt 0.500250 0.249751
vt 0.749750 0.000250
vt 0.749750 0.249750
vt 0.500250 0.000250
vn 0.0000 0.0000 1.0000
g Plane.004_Plane.004_Material.003
usemtl Material.003
s off
f 18/17/5 19/18/5 17/19/5
f 18/17/5 20/20/5 19/18/5
